<?xml version="1.0" encoding="UTF-8"?>
<svg id="Capa_2" data-name="Capa 2" xmlns="http://www.w3.org/2000/svg" viewBox="0 0 756.62 756.49">
  <defs>
    <style>
      .cls-1 {
        fill: #0e0e0d;
      }
    </style>
  </defs>
  <g id="Capa_1-2" data-name="Capa 1">
    <path class="cls-1" d="m378.33,756.49c-66.01,0-131-17.26-187.96-49.92-.18-.11-.36-.21-.54-.32-.16-.09-.32-.18-.48-.27-54.34-31.38-100.47-76.23-133.38-129.69-15.35-24.92-7.58-57.57,17.34-72.92,24.92-15.35,57.57-7.58,72.92,17.34,23.73,38.53,56.97,70.86,96.13,93.48.13.08.27.16.4.23.11.06.22.13.33.19,40.94,23.47,87.69,35.88,135.21,35.88,2.45,0,4.94-.03,7.39-.1,29.29-.76,53.61,22.32,54.38,51.58.77,29.26-22.32,53.61-51.58,54.38-3.37.09-6.79.13-10.17.14Zm162.82-43.59c-18.27,0-36.05-9.46-45.89-26.4-14.7-25.31-6.09-57.75,19.23-72.45l.8-.47c25.29-14.73,57.74-6.17,72.47,19.12,14.73,25.29,6.17,57.74-19.12,72.47l-.94.55c-8.37,4.86-17.53,7.17-26.56,7.17Zm123.12-126.59c-8.55,0-17.22-2.07-25.26-6.44-25.72-13.98-35.23-46.16-21.26-71.88,21.49-39.54,32.85-84.4,32.86-129.75v-.61c0-.19,0-.38,0-.57,0-.12,0-.25,0-.37-.27-50.08-14.23-98.94-40.39-141.32-15.38-24.91-7.65-57.56,17.26-72.94,24.91-15.38,57.57-7.65,72.94,17.26,36.39,58.95,55.82,126.88,56.19,196.44,0,.21,0,.43,0,.64,0,.15,0,.29,0,.44v.96c0,63-15.81,125.39-45.73,180.43-9.61,17.68-27.82,27.7-46.61,27.7ZM53,432.57C23.83,432.57.13,408.99,0,379.8v-1.16c-.05-29.27,23.65-53.03,52.92-53.08h.08c29.24,0,52.96,23.68,53,52.92v.86c.13,29.27-23.5,53.1-52.77,53.23h-.24Zm39.07-156.17c-8.53,0-17.18-2.06-25.21-6.41-25.73-13.95-35.29-46.12-21.34-71.85,33.04-60.96,82.16-111.69,142.05-146.72.17-.1.34-.2.51-.29.17-.1.34-.2.5-.3C242.82,19.33,304.75,1.76,367.67.02c29.27-.81,53.64,22.25,54.45,51.51.81,29.26-22.25,53.64-51.51,54.45-45.28,1.25-89.82,13.88-128.8,36.51-.12.07-.25.14-.37.21-.12.07-.24.14-.36.21-43.16,25.24-78.56,61.8-102.37,105.73-9.6,17.71-27.82,27.75-46.64,27.75Zm448.32-127.3c-9.01,0-18.13-2.3-26.49-7.13l-.64-.37c-25.41-14.53-34.24-46.9-19.71-72.32,14.53-25.41,46.91-34.23,72.32-19.71l1.12.64c25.34,14.66,33.99,47.08,19.33,72.42-9.82,16.98-27.63,26.47-45.92,26.47Z"/>
  </g>
</svg>