<?xml version="1.0" encoding="UTF-8"?>
<svg id="Capa_2" data-name="Capa 2" xmlns="http://www.w3.org/2000/svg" viewBox="0 0 168.79 168.79">
  <defs>
    <style>
      .cls-1 {
        fill: #fff;
      }

      .cls-2 {
        fill: #3897f1;
      }
    </style>
  </defs>
  <g id="Layer_2" data-name="Layer 2">
    <g id="Badge_1_-_Orange" data-name="Badge 1 - Orange">
      <g>
        <path class="cls-2" d="m168.79,84.4c0,6.97-13.68,12.06-15.4,18.49-1.78,6.66,7.47,17.89,4.1,23.72-3.42,5.91-17.8,3.49-22.6,8.29-4.79,4.8-2.37,19.18-8.29,22.6-5.83,3.37-17.06-5.88-23.71-4.1-6.44,1.72-11.52,15.4-18.49,15.4s-12.07-13.68-18.49-15.4c-6.66-1.78-17.89,7.47-23.72,4.1-5.92-3.42-3.49-17.8-8.29-22.6-4.8-4.8-19.18-2.38-22.6-8.29-3.37-5.83,5.88-17.06,4.1-23.72-1.72-6.43-15.4-11.52-15.4-18.49s13.68-12.06,15.4-18.49c1.78-6.66-7.47-17.89-4.1-23.72,3.42-5.91,17.8-3.49,22.6-8.29,4.8-4.8,2.38-19.18,8.29-22.6,5.83-3.37,17.06,5.88,23.72,4.1,6.44-1.72,11.52-15.4,18.49-15.4s12.06,13.68,18.49,15.4c6.66,1.78,17.89-7.47,23.72-4.1,5.91,3.42,3.49,17.81,8.29,22.6,4.79,4.8,19.18,2.38,22.6,8.29,3.37,5.83-5.88,17.05-4.1,23.71,1.72,6.43,15.39,11.52,15.39,18.49Z"/>
        <polygon class="cls-1" points="75.32 116.07 48.63 89.38 60.12 77.89 75.32 93.09 114.9 53.5 126.4 65 75.32 116.07"/>
      </g>
    </g>
  </g>
</svg>